<svg viewBox="0 0 20 20" width="20" height="20" xmlns="http://www.w3.org/2000/svg">
    <path
            d="M 13.639 10.709 C 14.619 9.938 15.333 8.881 15.685 7.685 C 16.035 6.488 16.005 5.212 15.597 4.035 C 15.19 2.856 14.424 1.835 13.409 1.112 C 12.393 0.389 11.177 0 9.93 0 C 8.683 0 7.468 0.389 6.452 1.112 C 5.437 1.835 4.671 2.856 4.264 4.035 C 3.856 5.212 3.825 6.488 4.176 7.685 C 4.528 8.881 5.242 9.938 6.222 10.709 C 4.543 11.382 3.079 12.497 1.984 13.937 C 0.889 15.377 0.205 17.087 0.006 18.885 C -0.008 19.015 0.002 19.149 0.04 19.276 C 0.077 19.402 0.138 19.52 0.221 19.623 C 0.387 19.831 0.63 19.965 0.895 19.994 C 1.161 20.023 1.426 19.946 1.635 19.779 C 1.842 19.613 1.975 19.369 2.004 19.104 C 2.224 17.15 3.155 15.347 4.621 14.036 C 6.087 12.726 7.984 12.002 9.951 12.002 C 11.917 12.002 13.814 12.726 15.28 14.036 C 16.745 15.347 17.677 17.15 17.896 19.104 C 17.923 19.35 18.04 19.577 18.225 19.741 C 18.41 19.905 18.648 19.995 18.896 19.994 L 19.006 19.994 C 19.267 19.964 19.507 19.831 19.671 19.626 C 19.836 19.42 19.913 19.157 19.885 18.894 C 19.685 17.092 18.997 15.378 17.896 13.935 C 16.797 12.493 15.324 11.378 13.639 10.709 Z M 9.93 10 C 9.14 10 8.367 9.765 7.709 9.326 C 7.052 8.887 6.54 8.262 6.237 7.532 C 5.934 6.801 5.855 5.998 6.01 5.222 C 6.163 4.446 6.545 3.734 7.104 3.175 C 7.663 2.616 8.375 2.236 9.151 2.081 C 9.926 1.926 10.729 2.005 11.46 2.309 C 12.191 2.611 12.815 3.123 13.254 3.78 C 13.694 4.439 13.928 5.211 13.928 6.001 C 13.928 7.062 13.507 8.079 12.757 8.828 C 12.008 9.578 10.991 10 9.93 10 Z"
            fill="white" fill-opacity="1"/>
</svg>