<svg  viewBox="0 0 20 20" width="20" height="20" xmlns="http://www.w3.org/2000/svg">
    <path
        d="M 15.001 4.999 L 12 4.999 L 12 4 C 12 2.939 11.579 1.921 10.829 1.171 C 10.079 0.421 9.062 0 8.001 0 C 6.94 0 5.922 0.421 5.172 1.171 C 4.422 1.921 4 2.939 4 4 L 4 4.999 L 1 4.999 C 0.734 4.999 0.48 5.105 0.293 5.292 C 0.106 5.481 0 5.735 0 6 L 0 17 C 0 17.796 0.316 18.559 0.878 19.122 C 1.441 19.684 2.204 20 3 20 L 13 20 C 13.796 20 14.559 19.684 15.122 19.122 C 15.685 18.559 16 17.796 16 17 L 16 6 C 16 5.735 15.896 5.481 15.707 5.292 C 15.52 5.105 15.266 4.999 15.001 4.999 Z M 6 4 C 6 3.469 6.211 2.961 6.586 2.586 C 6.961 2.21 7.47 1.999 8.001 1.999 C 8.531 1.999 9.04 2.21 9.414 2.586 C 9.79 2.961 10 3.469 10 4 L 10 4.999 L 6 4.999 L 6 4 Z M 14.001 17 C 14.001 17.265 13.895 17.52 13.708 17.708 C 13.52 17.895 13.265 18.001 13 18.001 L 3 18.001 C 2.735 18.001 2.48 17.895 2.293 17.708 C 2.105 17.52 2 17.265 2 17 L 2 7 L 4 7 L 4 8 C 4 8.265 4.105 8.519 4.293 8.708 C 4.481 8.895 4.735 9 5.001 9 C 5.266 9 5.52 8.895 5.707 8.708 C 5.895 8.519 6 8.265 6 8 L 6 7 L 10 7 L 10 8 C 10 8.265 10.106 8.519 10.293 8.708 C 10.481 8.895 10.736 9 11.001 9 C 11.266 9 11.52 8.895 11.708 8.708 C 11.895 8.519 12 8.265 12 8 L 12 7 L 14.001 7 L 14.001 17 Z"
        fill="currentColor"
        stroke="currentColor"
    />
</svg>
